<?xml version="1.0" encoding="UTF-8" standalone="no"?>
<svg
   xmlns:dc="http://purl.org/dc/elements/1.1/"
   xmlns:cc="http://creativecommons.org/ns#"
   xmlns:rdf="http://www.w3.org/1999/02/22-rdf-syntax-ns#"
   xmlns:svg="http://www.w3.org/2000/svg"
   xmlns="http://www.w3.org/2000/svg"
   xmlns:sodipodi="http://sodipodi.sourceforge.net/DTD/sodipodi-0.dtd"
   xmlns:inkscape="http://www.inkscape.org/namespaces/inkscape"
   inkscape:version="1.0 (4035a4fb49, 2020-05-01)"
   sodipodi:docname="paypal.svg"
   id="svg2905"
   version="1.1"
   height="37.346001"
   width="37.346001">
  <metadata
     id="metadata2911">
    <rdf:RDF>
      <cc:Work
         rdf:about="">
        <dc:format>image/svg+xml</dc:format>
        <dc:type
           rdf:resource="http://purl.org/dc/dcmitype/StillImage" />
        <dc:title></dc:title>
      </cc:Work>
    </rdf:RDF>
  </metadata>
  <defs
     id="defs2909" />
  <sodipodi:namedview
     inkscape:current-layer="svg2905"
     inkscape:window-maximized="0"
     inkscape:window-y="20"
     inkscape:window-x="0"
     inkscape:cy="16.035633"
     inkscape:cx="13.72212"
     inkscape:zoom="10.717742"
     showgrid="false"
     id="namedview2907"
     inkscape:window-height="1060"
     inkscape:window-width="1920"
     inkscape:pageshadow="2"
     inkscape:pageopacity="0"
     guidetolerance="10"
     gridtolerance="10"
     objecttolerance="10"
     borderopacity="1"
     bordercolor="#666666"
     pagecolor="#ffffff" />
  <path
     sodipodi:insensitive="true"
     d="M -0.52957518,-1.8472496 H 37.84236 V 38.067505 H -0.52957518 Z"
     style="fill:#187de5;fill-opacity:1;stroke-width:44.5282;stroke-linecap:square;stroke-linejoin:round"
     id="rect3474" />
  <path
     id="path2899"
     d="m 30.611224,10.676208 c -0.028,0.179 -0.06,0.362 -0.096,0.55 -1.237,6.351 -5.469,8.545 -10.874,8.545 h -2.752 c -0.660999,0 -1.217999,0.48 -1.320999,1.132 l -1.409,8.936 -0.399,2.533 a 0.704,0.704 0 0 0 0.695,0.814 h 4.880999 c 0.578,0 1.069,-0.42 1.16,-0.99 l 0.048,-0.248 0.919,-5.832 0.059,-0.32 c 0.09,-0.572 0.582,-0.992 1.16,-0.992 h 0.73 c 4.729,0 8.431,-1.92 9.513,-7.476 0.452,-2.321 0.218,-4.259 -0.978,-5.622 a 4.667,4.667 0 0 0 -1.336,-1.03 z"
     fill="#179bd7" />
  <path
     id="path2901"
     d="m 29.317224,10.160208 a 9.757,9.757 0 0 0 -1.203,-0.2669996 15.284,15.284 0 0 0 -2.426,-0.177 h -7.352 a 1.172,1.172 0 0 0 -1.159,0.9919996 l -1.563999,9.906 -0.045,0.289 a 1.336,1.336 0 0 1 1.320999,-1.132 h 2.752 c 5.405,0 9.637,-2.195 10.874,-8.545 0.037,-0.188 0.068,-0.371 0.096,-0.55 a 6.594,6.594 0 0 0 -1.017,-0.429 9.045,9.045 0 0 0 -0.277,-0.087 z"
     fill="#222d65" />
  <path
     id="path2903"
     d="m 17.177224,10.708208 a 1.169,1.169 0 0 1 1.159,-0.9909996 h 7.352 c 0.871,0 1.684,0.057 2.426,0.177 a 9.757,9.757 0 0 1 1.481,0.3529996 c 0.365,0.121 0.704,0.264 1.017,0.429 0.368,-2.3470007 -0.003,-3.9450007 -1.272,-5.3920007 -1.399,-1.593 -3.924,-2.275 -7.155,-2.275 h -9.379999 c -0.66,0 -1.223,0.48 -1.325,1.133 L 7.5732251,28.907208 a 0.806,0.806 0 0 0 0.795,0.932 h 5.7909999 l 1.454,-9.225 z"
     fill="#253b80" />
  <circle
     r="29.950338"
     cy="41.89315"
     cx="46.651623"
     id="path3541"
     style="opacity:0.424324;fill:#0099ff;fill-opacity:1;stroke-width:64.3623;stroke-linecap:square;stroke-linejoin:round" />
</svg>
